<?xml version="1.0" encoding="utf-8"?>
<!-- Generator: Adobe Illustrator 23.0.6, SVG Export Plug-In . SVG Version: 6.00 Build 0)  -->
<svg version="1.1" id="Layer_1" xmlns="http://www.w3.org/2000/svg" xmlns:xlink="http://www.w3.org/1999/xlink" x="0px" y="0px"
	 viewBox="0 0 40 40" style="enable-background:new 0 0 40 40;" xml:space="preserve">
<style type="text/css">
	.st0{fill-rule:evenodd;clip-rule:evenodd;fill:#303030;}
</style>
<path class="st0" d="M20,0C9,0,0,9.2,0,20.5C0,29.6,5.7,37.3,13.7,40c1,0.2,1.4-0.4,1.4-1c0-0.5,0-2.1,0-3.8
	c-5.6,1.2-6.7-2.4-6.7-2.4c-0.9-2.4-2.2-3-2.2-3c-1.8-1.3,0.1-1.2,0.1-1.2c2,0.1,3.1,2.1,3.1,2.1c1.8,3.1,4.7,2.2,5.8,1.7
	c0.2-1.3,0.7-2.2,1.3-2.7c-4.4-0.5-9.1-2.3-9.1-10.1c0-2.2,0.8-4.1,2.1-5.5c-0.2-0.5-0.9-2.6,0.2-5.4c0,0,1.7-0.6,5.5,2.1
	c1.6-0.5,3.3-0.7,5-0.7c1.7,0,3.4,0.2,5,0.7c3.8-2.7,5.5-2.1,5.5-2.1c1.1,2.8,0.4,4.9,0.2,5.4c1.3,1.4,2.1,3.3,2.1,5.5
	c0,7.9-4.7,9.6-9.1,10.1c0.7,0.6,1.4,1.9,1.4,3.8c0,2.7,0,5,0,5.6c0,0.5,0.4,1.2,1.4,1C34.3,37.2,40,29.6,40,20.5C40,9.2,31,0,20,0z
	"/>
</svg>
