<?xml version="1.0" encoding="utf-8"?>
<!-- Generator: Adobe Illustrator 23.0.6, SVG Export Plug-In . SVG Version: 6.00 Build 0)  -->
<svg version="1.1" id="Layer_1" xmlns="http://www.w3.org/2000/svg" xmlns:xlink="http://www.w3.org/1999/xlink" x="0px" y="0px"
	 viewBox="0 0 40 40" style="enable-background:new 0 0 40 40;" xml:space="preserve">
<style type="text/css">
	.st0{fill:#303030;}
</style>
<g>
	<path class="st0" d="M20,0C9,0,0,9,0,20c0,11,9,20,20,20s20-9,20-20C40,9,31,0,20,0z M14.2,30.1H9.7V16.5h4.5V30.1z M12,14.6
		L12,14.6L12,14.6c-1.6,0-2.5-1-2.5-2.4c0-1.3,1-2.4,2.6-2.4c1.6,0,2.5,1,2.5,2.4C14.5,13.6,13.5,14.6,12,14.6z M30.6,30.1H26v-7.3
		c0-1.8-0.7-3.1-2.3-3.1c-1.3,0-2,0.8-2.3,1.7c-0.1,0.3-0.1,0.7-0.1,1.1v7.6h-4.5c0,0,0.1-12.4,0-13.6h4.5v1.9
		c0.6-0.9,1.7-2.3,4.1-2.3c3,0,5.2,1.9,5.2,6.1V30.1z"/>
</g>
</svg>
