<?xml version="1.0" encoding="utf-8"?>
<!-- Generator: Adobe Illustrator 23.0.6, SVG Export Plug-In . SVG Version: 6.00 Build 0)  -->
<svg version="1.1" id="Layer_1" xmlns="http://www.w3.org/2000/svg" xmlns:xlink="http://www.w3.org/1999/xlink" x="0px" y="0px"
	 viewBox="0 0 40 40" style="enable-background:new 0 0 40 40;" xml:space="preserve">
<style type="text/css">
	.st0{fill:#303030;}
</style>
<g>
	<path class="st0" d="M30,14.4c-1.2-0.6-3.9-0.3-5.4-0.3c-1.9,0-10.5-0.1-11.6,0l0,7.8c1,0.1,9.7,0,11.5,0c1.5,0,4.3,0.2,5.5-0.3
		C33,20.2,33.1,16,30,14.4z"/>
	<path class="st0" d="M40,19.2C39.6,8.6,30.8,0,20.1,0c0,0-0.1,0-0.1,0C9,0,0.1,8.9,0,19.9c0,0.1,0,0.2,0,0.3
		C0.1,31.1,8.9,39.9,19.9,40c0.1,0,0.2,0,0.3,0c10.8-0.1,19.6-8.7,19.9-19.5C40,20.1,40,19.6,40,19.2z M31.2,22
		c-1.7,1.2-3.2,0.9-5.5,0.9c-1.6,0-12.1-0.1-12.7,0l0,3.9l-1.1,0l0-3.9l-5,0l0-0.9l5,0l0-8.8c2-0.1,4.4,0,6.4,0H28
		c1.4,0,1.6-0.1,2.7,0.6c1.2,0.7,2.3,2,2.5,3.9C33.4,19.8,32.4,21.2,31.2,22z"/>
</g>
</svg>
