<?xml version="1.0" encoding="utf-8"?>
<!-- Generator: Adobe Illustrator 23.0.6, SVG Export Plug-In . SVG Version: 6.00 Build 0)  -->
<svg version="1.1" id="Layer_1" xmlns="http://www.w3.org/2000/svg" xmlns:xlink="http://www.w3.org/1999/xlink" x="0px" y="0px"
	 viewBox="0 0 40 40" style="enable-background:new 0 0 40 40;" xml:space="preserve">
<style type="text/css">
	.st0{fill:#303030;}
</style>
<path class="st0" d="M20,0C9,0,0,9,0,20c0,11,9,20,20,20c11,0,20-9,20-20C40,9,31,0,20,0z M30.9,14.4c0,0.2,0,0.5,0,0.7
	c0,7.4-5.7,16-16,16v0c-3.1,0-6.1-0.9-8.6-2.5c0.4,0.1,0.9,0.1,1.3,0.1c2.5,0,5-0.8,7-2.4c-2.4,0-4.5-1.6-5.3-3.9
	c0.8,0.2,1.7,0.1,2.5-0.1c-2.6-0.5-4.5-2.8-4.5-5.5c0,0,0,0,0-0.1c0.8,0.4,1.7,0.7,2.6,0.7c-2.5-1.7-3.2-4.9-1.7-7.5
	c2.9,3.5,7.1,5.7,11.6,5.9c-0.5-2,0.2-4,1.6-5.4c2.3-2.1,5.8-2,8,0.2c1.3-0.2,2.5-0.7,3.6-1.4c-0.4,1.3-1.3,2.4-2.5,3.1
	c1.1-0.1,2.2-0.4,3.2-0.9C33,12.6,32,13.6,30.9,14.4z"/>
</svg>
