<svg id="Layer_1" data-name="Layer 1" xmlns="http://www.w3.org/2000/svg" xmlns:xlink="http://www.w3.org/1999/xlink" width="405.1" height="94.4" viewBox="0 0 405.1 94.4"><defs><style>.cls-1,.cls-3{fill:none;}.cls-2{clip-path:url(#clip-path);}.cls-3{stroke:#fff;stroke-miterlimit:10;stroke-width:7px;}.cls-4{clip-path:url(#clip-path-2);}.cls-5{clip-path:url(#clip-path-3);}.cls-6{clip-path:url(#clip-path-4);}.cls-7{clip-path:url(#clip-path-5);}.cls-8{clip-path:url(#clip-path-6);}.cls-9{clip-path:url(#clip-path-7);}.cls-10{clip-path:url(#clip-path-8);}.cls-11{clip-path:url(#clip-path-9);}.cls-12{clip-path:url(#clip-path-10);}.cls-13{clip-path:url(#clip-path-11);}.cls-14{clip-path:url(#clip-path-12);}.cls-15{clip-path:url(#clip-path-13);}.cls-16{clip-path:url(#clip-path-14);}</style><clipPath id="clip-path" transform="translate(0 0)"><path class="cls-1" d="M32.4,6.6a1.4,1.4,0,0,1,.5.8c0,.4-.3.6-.8.6l-.8-.2A6.8,6.8,0,0,0,28.9,7c-1.4,0-3,1.4-4.8,4.3C17.9,21.4,13.3,34.6,10.4,50.9A59.5,59.5,0,0,1,23.5,33.3a4.3,4.3,0,0,1,2.3-1.4l3.9,2a3.5,3.5,0,0,1,.9,2.8,4.9,4.9,0,0,1-.1,1.2,66,66,0,0,1-3.6,15.2c.7-1,1.9-2.5,3.5-4.4a1.5,1.5,0,0,1,.9-.6c.3,0,.4.2.4.5a2.1,2.1,0,0,1-.5,1.2c-1.3,2-3.1,4.8-5.4,8.6l-1.3,3a1.6,1.6,0,0,1-1.3,1.1,4.8,4.8,0,0,1-2.6-1.2c-.5-.3-.6-.9-.3-1.6,4-10.1,6.2-17.6,6.4-22.6.1-1.5-.1-2.2-.6-2.2a6.2,6.2,0,0,0-1.9,1.2,38.4,38.4,0,0,0-6.7,7.8,64.8,64.8,0,0,0-8,14.9C9,60.2,8.5,61,8,61a5.1,5.1,0,0,1-2.3-1.5,2.4,2.4,0,0,1-.6-2.4c2.7-14.9,6.2-27.6,10.6-38.2,3.2-7.8,6.2-13,8.8-15.4a3.4,3.4,0,0,1,1.9-.9,4.7,4.7,0,0,1,2.5,1.1ZM25.8,31.9a4.7,4.7,0,0,1,3.9,2,3.5,3.5,0,0,1,.9,2.8"/></clipPath><clipPath id="clip-path-2" transform="translate(0 0)"><path class="cls-1" d="M61.3,35.7a70.5,70.5,0,0,0-7,20.4c.6-1.2,1.4-2.6,2.4-4.4s.3-.5.5-.5.5.2.5.7a.6.6,0,0,1-.1.4,74.7,74.7,0,0,0-2.9,7.9c-.3,1.2-.7,1.8-1.1,1.8a7.4,7.4,0,0,1-2.8-1.4c-.7-.5-.9-1.4-.7-2.7a83.8,83.8,0,0,1,3.5-13.3A112.7,112.7,0,0,1,42.2,60.8,2.5,2.5,0,0,1,40,62c-1.9-.3-4.7-1.9-4.7-3.3a2.8,2.8,0,0,1,.1-.9A56.7,56.7,0,0,1,39,41.1l-1.8,1.7c-.3.2-.5.3-.7.2s-.1-.4.1-.8a28.5,28.5,0,0,0,2.3-3.7,14.4,14.4,0,0,1,2.3-4.2,1.4,1.4,0,0,1,1.3-.8,6.1,6.1,0,0,1,2.8,1.1c.3.2.5.4.5.6L45,36.4c-1.2,1.8-2.4,4.9-3.7,9.4a44.6,44.6,0,0,0-2.2,11.9q0,1.5.6,1.5c.4,0,1-.4,1.8-1.3A77.7,77.7,0,0,0,49.4,47a93.2,93.2,0,0,0,5.5-9.2c1-2.4,1.9-3.8,2.5-4.2a2.5,2.5,0,0,1,1.2-.4,7.3,7.3,0,0,1,1.9.7c.9.5,1.4.9,1.4,1.1s-.1.2-.3.3Z"/></clipPath><clipPath id="clip-path-3" transform="translate(0 0)"><path class="cls-1" d="M105.7,50a123.7,123.7,0,0,0-6.9,12,2.2,2.2,0,0,1-.5.8,2.6,2.6,0,0,1-1.5-.2c-1.6-.5-2.4-.9-2.4-1.4l.3-1.1A92.8,92.8,0,0,0,99.3,47a48.9,48.9,0,0,0,1.8-10.7c0-.9-.3-1.3-.9-1.3a2.7,2.7,0,0,0-1.4.7c-2,1.6-4.6,4.8-7.8,9.4a63.5,63.5,0,0,0-8,15.8,4.2,4.2,0,0,1-.4,1,2.4,2.4,0,0,1-1-.2,8.4,8.4,0,0,1-2.3-1.2,1.6,1.6,0,0,1-.6-.8,11.9,11.9,0,0,1,.6-1.4A61.3,61.3,0,0,0,83.9,36c0-.8-.2-1.1-.7-1.1a1.7,1.7,0,0,0-1.1.6c-2.5,2.1-5.3,5.7-8.4,10.9a72.8,72.8,0,0,0-6.6,13.8c-.4,1.1-.8,1.7-1.2,1.7a7.8,7.8,0,0,1-2.8-1.6c-.4-.2-.6-.4-.6-.7a111.3,111.3,0,0,0,4-11.7c1.4-5.7,2-9.8,1.8-12.4l-1.8,1.7c-.8.8-1.4,1.5-1.9,1.9a1.2,1.2,0,0,1-.8.4c-.3,0-.5-.2-.5-.7a1.4,1.4,0,0,1,.4-1A45.4,45.4,0,0,0,67.6,33c.5-.6.9-1,1.2-1s2.7,1.6,3.3,1.8a1.2,1.2,0,0,1,.7,1.3v.6a92.6,92.6,0,0,1-2.7,12.7c4.1-7.5,8-12.8,11.5-15.9a2.1,2.1,0,0,1,1.5-.7,17.7,17.7,0,0,1,4.1,2.1,2.5,2.5,0,0,1,.5,1.9,46.3,46.3,0,0,1-1.6,12.8c4.6-7.2,8.7-12.6,12.5-16.1a1.8,1.8,0,0,1,1.5-.7c.7,0,5.3,2.8,5.2,4.7a51.3,51.3,0,0,1-3.6,16.4,33.8,33.8,0,0,0,2.7-3.6,1.2,1.2,0,0,1,1.1-.7.5.5,0,0,1,.5.5A1.6,1.6,0,0,1,105.7,50Z"/></clipPath><clipPath id="clip-path-4" transform="translate(0 0)"><path class="cls-1" d="M133.8,37.8a112,112,0,0,0-4.4,15l1.4-1.5,1-1.2a1.3,1.3,0,0,1,1.1-.6c.2-.1.5.1.5.4h0a.9.9,0,0,1-.3.7,30.3,30.3,0,0,0-4.4,9.9c-.2,1-.5,1.4-.9,1.4a5.7,5.7,0,0,1-2.2-1.1,2,2,0,0,1-1.1-1.1,3.8,3.8,0,0,1,0-1.5,74.6,74.6,0,0,1,3.7-14.8,87.9,87.9,0,0,1-8.4,10.9,46.5,46.5,0,0,1-6.6,6.7,4.8,4.8,0,0,1-2.3,1,3.5,3.5,0,0,1-1.9-1,3.6,3.6,0,0,1-1.9-3.1c0-.3.1-.6.1-.9.4-3.4,2-7.5,4.6-12.1a48.2,48.2,0,0,1,9-11.6,4.4,4.4,0,0,1,3-1.5q1.2,0,4.8,3.3a.7.7,0,0,1,.3.6c0,.4-.2.6-.7.6h-.6a4,4,0,0,0-4,0c-2.2,1.6-4.6,4.5-7.3,8.6a35.4,35.4,0,0,0-5.6,12.6V58c0,.6.2.9.7.9a4.6,4.6,0,0,0,2.8-1.7,85.8,85.8,0,0,0,8.5-9.6,48.9,48.9,0,0,0,5.9-9.1c.6-1.5,1-2.5,1.2-3.2s.7-1.5,1-1.5a7.7,7.7,0,0,1,2.5,1.4,1.5,1.5,0,0,1,.8,1.1A4,4,0,0,1,133.8,37.8Z"/></clipPath><clipPath id="clip-path-5" transform="translate(0 0)"><path class="cls-1" d="M164,48.7c-1.4,2.1-3.2,5.2-5.5,9.2l-1.2,3.2c-.3.7-.7,1.1-1.3,1.1a5.3,5.3,0,0,1-1.8-.5c-1-.4-1.4-.8-1.4-1.1a3.6,3.6,0,0,1,.4-1.1,59.2,59.2,0,0,0,4.1-11.6c1.3-4.9,1.9-8.6,1.7-11.1-.1-1-.3-1.6-.7-1.6a2.6,2.6,0,0,0-1.4.9q-8.8,8.7-15.3,23.1c-.6,1.2-1.2,1.8-1.9,1.8a7.9,7.9,0,0,1-2.6-.8c-.5-.2-.7-.4-.7-.6a3,3,0,0,1,.4-1,95,95,0,0,0,4-11.3,58.3,58.3,0,0,0,2.4-11.6c.1-.9,0-1.3-.1-1.3l-.9,1-2.7,2.4-.7.4a.5.5,0,0,1-.5-.4,1.6,1.6,0,0,1,.4-.7c1-1.3,2.3-2.9,4-4.8a1.4,1.4,0,0,1,1.1-.6c.5,0,4.2,2.7,4.1,3.8-.3,2.6-1.6,7.3-4,14a64.3,64.3,0,0,1,6.9-10.1c3-3.8,5.2-6,6.7-6.7l1.5-.5c.3,0,4.4,2.6,4.4,4.2a51.9,51.9,0,0,1-1.2,7.9c-.7,3-1.2,5.3-1.8,7l2.6-3.4a.6.6,0,0,1,.6-.3c.3,0,.5.2.5.6A.9.9,0,0,1,164,48.7Z"/></clipPath><clipPath id="clip-path-6" transform="translate(0 0)"><path class="cls-1" d="M208.6,6.6a1.4,1.4,0,0,1,.5.8c0,.4-.3.6-.8.6l-.8-.2a6.8,6.8,0,0,0-2.4-.8c-1.5,0-3.1,1.4-4.9,4.3-6.3,10.4-10.9,23.8-13.6,40.2a6.7,6.7,0,0,1-.3,1.8l2.4-2.7c.6-.7,1-1.1,1.3-1.1s.7.4.2,1.1a27,27,0,0,0-4.5,10.1c-.3.9-.6,1.3-1,1.3a1.5,1.5,0,0,1-.7-.3l-2.1-1.4a2.6,2.6,0,0,1-.7-1.9,5.9,5.9,0,0,1,.2-1.3c2.7-15,6.2-27.7,10.5-38.2,3.2-7.9,6.1-13,8.7-15.4a2.7,2.7,0,0,1,2.1-.9,4.2,4.2,0,0,1,2.5,1.2Z"/></clipPath><clipPath id="clip-path-7" transform="translate(0 0)"><path class="cls-1" d="M218.7,37.8a112,112,0,0,0-4.4,15l1.4-1.5,1-1.2a1.4,1.4,0,0,1,1.1-.6c.2-.1.5.1.5.4h0a.9.9,0,0,1-.3.7,30.3,30.3,0,0,0-4.4,9.9c-.2,1-.5,1.4-.9,1.4a5.7,5.7,0,0,1-2.2-1.1,2,2,0,0,1-1.1-1.1,3.8,3.8,0,0,1,0-1.5,74.6,74.6,0,0,1,3.7-14.8,87.9,87.9,0,0,1-8.4,10.9,46.5,46.5,0,0,1-6.6,6.7,4.8,4.8,0,0,1-2.3,1,3.5,3.5,0,0,1-1.9-1A3.6,3.6,0,0,1,192,58c0-.3.1-.6.1-.9.4-3.4,2-7.5,4.6-12.1a48.2,48.2,0,0,1,9-11.6,4.4,4.4,0,0,1,3-1.5q1.2,0,4.8,3.3a.7.7,0,0,1,.3.6c0,.4-.2.6-.7.6h-.6a4,4,0,0,0-4,0c-2.2,1.6-4.6,4.5-7.3,8.6a35.4,35.4,0,0,0-5.6,12.6V58c0,.6.2.9.7.9a4.6,4.6,0,0,0,2.8-1.7,85.8,85.8,0,0,0,8.5-9.6,48.9,48.9,0,0,0,5.9-9.1c.6-1.5,1-2.5,1.2-3.2s.7-1.5,1-1.5a7.7,7.7,0,0,1,2.5,1.4,1.5,1.5,0,0,1,.8,1.1A4,4,0,0,1,218.7,37.8Z"/></clipPath><clipPath id="clip-path-8" transform="translate(0 0)"><path class="cls-1" d="M248.9,48.7c-1.4,2.1-3.2,5.2-5.5,9.2l-1.2,3.2c-.3.7-.7,1.1-1.3,1.1a5.3,5.3,0,0,1-1.8-.5c-1-.4-1.4-.8-1.4-1.1a3.6,3.6,0,0,1,.4-1.1,59.2,59.2,0,0,0,4.1-11.6c1.3-4.9,1.9-8.6,1.7-11.1-.1-1-.3-1.6-.7-1.6a2.6,2.6,0,0,0-1.4.9q-8.9,8.7-15.3,23.1c-.6,1.2-1.2,1.8-1.9,1.8a7.9,7.9,0,0,1-2.6-.8c-.5-.2-.7-.4-.7-.6a3,3,0,0,1,.4-1,95,95,0,0,0,4-11.3,58.3,58.3,0,0,0,2.4-11.6,4.1,4.1,0,0,0,0-1.3c-.1,0-.4.3-1,1l-2.7,2.4c-.1.2-.4.3-.7.4a.5.5,0,0,1-.5-.4,1.6,1.6,0,0,1,.4-.7c1-1.3,2.3-2.9,4-4.8a1.4,1.4,0,0,1,1.1-.6c.5,0,4.2,2.7,4.1,3.8-.3,2.6-1.6,7.3-4,14a64.3,64.3,0,0,1,6.9-10.1c3-3.8,5.2-6,6.7-6.7l1.5-.5c.3,0,4.4,2.6,4.4,4.2a51.9,51.9,0,0,1-1.2,7.9c-.7,3-1.2,5.3-1.8,7l2.6-3.4a.6.6,0,0,1,.6-.3c.3,0,.5.2.5.6A.9.9,0,0,1,248.9,48.7Z"/></clipPath><clipPath id="clip-path-9" transform="translate(0 0)"><path class="cls-1" d="M277.2,36.3c-7.2,37.4-16.5,56-28.1,56-4.1,0-8.6-2.3-13.4-6.9a1.7,1.7,0,0,1-.7-1.3.9.9,0,0,1,1-1,1.8,1.8,0,0,1,.9.4c3.8,3.3,7.3,4.9,10.3,4.9,9.6,0,17.7-14.2,24.1-42.5Q265.4,56,261.1,60.3a5,5,0,0,1-3.1,1.8,5.5,5.5,0,0,1-3.2-1.4,5.4,5.4,0,0,1-3.2-5.4q.3-4.6,3.6-11.4A36.6,36.6,0,0,1,262,33.8a6,6,0,0,1,3.6-1.9,5.4,5.4,0,0,1,2.7,1.1l2.8,2.5a1.1,1.1,0,0,1,.5.9c0,.4-.3.6-.8.6a2.1,2.1,0,0,1-1.2-.3,5.4,5.4,0,0,0-2.1-.5,3.8,3.8,0,0,0-2.7,1,27.7,27.7,0,0,0-5.4,7.3,31.6,31.6,0,0,0-3.7,10.1,18,18,0,0,0-.2,2.2c0,1.7.5,2.6,1.4,2.6a3,3,0,0,0,2-1,43.2,43.2,0,0,0,8.3-10.3,55.2,55.2,0,0,0,5.5-11.5,22.5,22.5,0,0,0,.6-3.6c0-.9.2-1.3.6-1.3a6.1,6.1,0,0,1,2.6,1.5C277.3,33.7,277.5,34.8,277.2,36.3Z"/></clipPath><clipPath id="clip-path-10" transform="translate(0 0)"><path class="cls-1" d="M307.3,35.7a70.5,70.5,0,0,0-7,20.4c.6-1.2,1.4-2.6,2.4-4.4s.3-.5.5-.5.5.2.5.7a.6.6,0,0,1-.1.4,74.7,74.7,0,0,0-2.9,7.9c-.3,1.2-.7,1.8-1.1,1.8a7.4,7.4,0,0,1-2.8-1.4,2.4,2.4,0,0,1-.7-2.7,88,88,0,0,1,3.5-13.4,108.3,108.3,0,0,1-11.4,16.3A2.5,2.5,0,0,1,286,62c-2-.3-4.7-2-4.7-3.4v-.8A56.2,56.2,0,0,1,285,41.1l-1.8,1.6c-.3.3-.5.4-.7.3s-.1-.5.1-.9a22.1,22.1,0,0,0,2.3-3.6,17.5,17.5,0,0,1,2.2-4.3,1.9,1.9,0,0,1,1.4-.7,6.1,6.1,0,0,1,2.8,1.1c.3.2.5.4.5.6l-.8,1.2c-1.2,1.8-2.4,4.9-3.7,9.4a44.6,44.6,0,0,0-2.2,11.9q0,1.5.6,1.5c.4,0,1-.4,1.8-1.3A77.7,77.7,0,0,0,295.4,47a93.2,93.2,0,0,0,5.5-9.2c1-2.4,1.9-3.8,2.5-4.2a2.5,2.5,0,0,1,1.2-.4,7.3,7.3,0,0,1,1.9.7c.9.5,1.4.9,1.4,1.1s-.1.2-.3.3S307.3,35.5,307.3,35.7Z"/></clipPath><clipPath id="clip-path-11" transform="translate(0 0)"><path class="cls-1" d="M333.5,37.8a112,112,0,0,0-4.4,15l1.3-1.5,1.1-1.2a1.1,1.1,0,0,1,1.1-.6c.2-.1.5.1.5.4h0a.9.9,0,0,1-.3.7,28.4,28.4,0,0,0-4.4,9.9c-.2,1-.5,1.4-.9,1.4a5.7,5.7,0,0,1-2.2-1.1,2,2,0,0,1-1.1-1.1,1.9,1.9,0,0,1,0-1.5,74.6,74.6,0,0,1,3.7-14.8,87.9,87.9,0,0,1-8.4,10.9,46.5,46.5,0,0,1-6.6,6.7,4.8,4.8,0,0,1-2.3,1,3.5,3.5,0,0,1-1.9-1,3.4,3.4,0,0,1-1.9-3.1c0-.3.1-.6.1-.9.4-3.4,2-7.5,4.6-12.1a48.2,48.2,0,0,1,9-11.6,4.4,4.4,0,0,1,3-1.5q1.2,0,4.8,3.3a.7.7,0,0,1,.3.6c0,.4-.3.6-.7.6h-.6a4,4,0,0,0-4,0c-2.2,1.6-4.6,4.5-7.3,8.6a35.4,35.4,0,0,0-5.6,12.6V58c0,.6.2.9.7.9a4.6,4.6,0,0,0,2.8-1.7,85.8,85.8,0,0,0,8.5-9.6,48.9,48.9,0,0,0,5.9-9.1c.6-1.5,1-2.5,1.2-3.2s.6-1.5,1-1.5a8.9,8.9,0,0,1,2.5,1.4,1.5,1.5,0,0,1,.8,1.1A4,4,0,0,1,333.5,37.8Z"/></clipPath><clipPath id="clip-path-12" transform="translate(0 0)"><path class="cls-1" d="M361.7,36.3c-7.1,37.4-16.5,56-28,56-4.2,0-8.6-2.3-13.5-6.9a1.6,1.6,0,0,1-.6-1.3c0-.6.3-1,.9-1a1.8,1.8,0,0,1,1,.4c3.8,3.3,7.2,4.9,10.2,4.9,9.7,0,17.7-14.2,24.2-42.5-3.9,6.7-7.3,11.5-10.3,14.4a4.5,4.5,0,0,1-3.1,1.8,5.5,5.5,0,0,1-3.1-1.4,5.4,5.4,0,0,1-3.2-5.4c.1-3.1,1.3-6.9,3.5-11.4a34.9,34.9,0,0,1,6.9-10.1,6,6,0,0,1,3.6-1.9,5,5,0,0,1,2.6,1.1l2.8,2.5a1.5,1.5,0,0,1,.6.9q0,.6-.9.6a2.7,2.7,0,0,1-1.2-.3,4.6,4.6,0,0,0-2.1-.5,3.5,3.5,0,0,0-2.6,1,27.7,27.7,0,0,0-5.4,7.3,34.4,34.4,0,0,0-3.8,10.1,17,17,0,0,0-.1,2.2c0,1.7.4,2.6,1.4,2.6a3.5,3.5,0,0,0,2-1,43.2,43.2,0,0,0,8.3-10.3,54.8,54.8,0,0,0,5.4-11.5,11.3,11.3,0,0,0,.6-3.6c0-.9.2-1.3.6-1.3a6.1,6.1,0,0,1,2.6,1.5C361.8,33.7,362.1,34.8,361.7,36.3Z"/></clipPath><clipPath id="clip-path-13" transform="translate(0 0)"><path class="cls-1" d="M383.3,51.2c-5.7,7.3-9.7,11.1-12,10.9-4.2-.4-6.8-4.2-6.8-5.6v-.8A57.6,57.6,0,0,1,367.1,45c-.9-.4-1.3-.8-1.3-1.2s.2-.5.7-.5a2.7,2.7,0,0,1,1.2.3,48.3,48.3,0,0,1,5.6-10c1.1-1.3,2.1-1.9,2.9-1.9a9.6,9.6,0,0,1,3,1c-.1-.7.1-1.1.6-1.3s3.2.2,3.2.6-.1.4-.2.6-.1.6-.1.9.1,1.9.1,3.1v2.5c0,2.9-.8,4.9-2.4,6.1a8.4,8.4,0,0,1-4.9,1.6,26.7,26.7,0,0,1-4.8-.8,21.3,21.3,0,0,0-1.3,4.3,28.2,28.2,0,0,0-.9,7.1c0,1.2.4,1.8,1.1,1.8l1.1-.2c2.7-1,6.5-3.9,11.4-8.8a1.3,1.3,0,0,1,.9-.5.6.6,0,0,1,.7.7A3,3,0,0,1,383.3,51.2Zm-4.1-15.6c0-.9-.2-1.3-.6-1.3a1.6,1.6,0,0,0-1.1.5c-2.3,1.9-4.4,5.1-6.1,9.8l2.5.2a5.3,5.3,0,0,0,4.2-1.3,5.7,5.7,0,0,0,1.2-3.5c-.1,1.2-.1-.3-.1-4.4Z"/></clipPath><clipPath id="clip-path-14" transform="translate(0 0)"><path class="cls-1" d="M397.1,53.2c0,4.5-7.1,8.7-8.2,8.8h-2.2l-5.1-.8a1.3,1.3,0,0,1-1-1c.1-.6.8-1,2-1.1s4.1-.4,7.4-.9a3.7,3.7,0,0,0,2.6-2.1,3.6,3.6,0,0,0,.4-2.1c0-1.4-.7-4-2.2-7.8s-2.1-6-2-7.2c.2-3,2.9-5,8.1-6.2.5-.1.8.1.8.6s-.2.5-.6.7c-2.5,1.1-3.8,2.4-3.8,4.1a8.5,8.5,0,0,0,.4,2.3q.3,1.5,2.1,6.9A20.1,20.1,0,0,1,397.1,53.2ZM402.7,33a22.6,22.6,0,0,1-.8,5.1,2.6,2.6,0,0,1-.7,1.5,6.7,6.7,0,0,1-1.2.6l-1.6.5c-.4,0-.5-.3-.5-.7a4.1,4.1,0,0,1,.1-1.1,12.9,12.9,0,0,0,.6-4.8c-.1-.9.2-1.5.8-1.7a9.2,9.2,0,0,1,2.3-.9C402.4,31.5,402.7,32,402.7,33Z"/></clipPath></defs><title>human-languages</title><g id="h-grp"><g class="cls-2"><polyline id="h-path" class="cls-3" points="34.1 8.7 27.1 4.7 22.1 10.7 15.1 24.7 11.1 37.7 7.1 57.7 16.1 43.7 24.1 34.7 27.1 33.7 29.1 34.7 22.1 60.7 27.1 54.7 32.1 47.7"/></g></g><g id="u-grp"><g class="cls-4"><polyline id="u-path" class="cls-3" points="36.1 43.7 39.1 39.7 42.1 34.7 44.1 35.7 41.1 42.7 40.1 46.7 38.1 55.7 38.1 58.7 38.1 59.7 40.1 60.7 43.1 57.7 53.1 43.7 58.1 34.7 60.1 35.7 57.1 42.7 55.1 48.7 52.1 60.7 53.1 60.7 58.1 50.7"/></g></g><g id="m-grp"><g class="cls-5"><polyline id="m-path" class="cls-3" points="62.1 40.7 69.1 32.7 72.1 34.7 69.1 48.7 65.1 60.7 73.1 45.7 79.1 36.7 83.1 33.7 86.1 34.7 86.1 41.7 84.1 49.7 81.1 60.7 88.1 47.7 94.1 38.7 100.1 33.7 103.1 35.7 103.1 41.7 100.1 53.7 97.1 61.7 107.1 46.7"/></g></g><g id="a-grp"><g class="cls-6"><polyline id="a-path" class="cls-3" points="129.1 36.7 124.1 32.7 118.1 38.7 111.1 49.7 108.1 58.7 111.1 60.7 116.1 56.7 127.1 43.7 131.1 35.7 133.1 36.7 128.1 52.7 127.1 60.7 130.1 53.7 134.1 48.7"/></g></g><g id="n-grp"><g class="cls-7"><polyline id="n-path" class="cls-3" points="138.1 38.7 143.1 32.7 147.1 35.7 142.1 51.7 138.1 59.7 140.1 60.7 145.1 49.7 151.1 40.7 157.1 34.7 159.1 33.7 162.1 35.7 159.1 51.7 155.1 60.7 156.1 61.7 160.1 52.7 165.1 46.7"/></g></g><g id="l-grp"><g class="cls-8"><polyline id="l-path" class="cls-3" points="210.1 8.7 203.1 4.7 193.1 20.7 183.1 58.7 184.1 60.7 187.1 54.7 191.1 47.7"/></g></g><g id="a-grp-2"><g class="cls-9"><polyline id="a-path-2" class="cls-3" points="214 36.7 209 32.7 203 38.7 196 49.7 193 58.7 196 60.7 201 56.7 212 43.7 216 35.7 218 36.7 213 52.7 212 60.7 215 53.7 219 48.7"/></g></g><g id="n-grp-2"><g class="cls-10"><polyline id="n-path-2" class="cls-3" points="223 38.7 228 32.7 232 35.7 227 51.7 223 59.7 225 60.7 230 49.7 236 40.7 242 34.7 244 33.7 247 35.7 244 51.7 240 60.7 241 61.7 245 52.7 250 46.7"/></g></g><g id="g-grp"><g class="cls-11"><polyline id="g-path" class="cls-3" points="272.1 36.7 266.1 33.7 260.1 38.7 255.1 48.7 253.1 57.7 258.1 61.7 263.1 55.7 271.1 43.7 274.1 36.7 274.1 33.7 276.1 34.7 271.1 55.7 266.1 70.7 260.1 82.7 253.1 88.7 249.1 90.7 244.1 89.7 233.1 82.7"/></g></g><g id="u-grp-2"><g class="cls-12"><polyline id="u-path-2" class="cls-3" points="282 43.7 285 39.7 288 34.7 290 35.7 287 42.7 286 46.7 284 55.7 284 58.7 284 59.7 286 60.7 289 57.7 299 43.7 304 34.7 306 35.7 303 42.7 301 48.7 298 60.7 299 60.7 304 50.7"/></g></g><g id="a-grp-3"><g class="cls-13"><polyline id="a-path-3" class="cls-3" points="328.7 36.7 323.7 32.7 317.7 38.7 310.7 49.7 307.7 58.7 310.7 60.7 315.7 56.7 326.7 43.7 330.7 35.7 332.7 36.7 327.7 52.7 326.7 60.7 329.7 53.7 333.7 48.7"/></g></g><g id="g-grp-2"><g class="cls-14"><polyline id="g-path-2" class="cls-3" points="356.6 36.7 350.6 33.7 344.6 38.7 339.6 48.7 337.6 57.7 342.6 61.7 347.6 55.7 355.6 43.7 358.6 36.7 358.6 33.7 360.6 34.7 355.6 55.7 350.6 70.7 344.6 82.7 337.6 88.7 333.6 90.7 328.6 89.7 317.6 82.7"/></g></g><g id="e-grp"><g class="cls-15"><polyline id="e-path" class="cls-3" points="364.1 42.7 372.1 45.7 377.1 45.7 381.1 43.7 382.1 39.7 382.1 32.7 380.1 32.7 380.1 33.7 376.1 32.7 372.1 38.7 368.1 47.7 366.1 56.7 367.1 58.7 370.1 60.7 373.1 60.7 385.1 48.7"/></g></g><g id="s-path"><g class="cls-16"><polyline id="s-path-2" class="cls-3" points="400.1 41.7 401.1 32.7 396.1 33.7 391.1 36.7 395.1 51.7 395.1 54.7 391.1 59.7 387.1 60.7 379.1 59.7"/></g></g></svg>