<svg xmlns="http://www.w3.org/2000/svg" width="40" height="40" viewBox="0 0 40 40"><defs><style>.cls-1{fill:#303030;}</style></defs><title>Asset 1</title><g id="Layer_2" data-name="Layer 2"><g id="LinkedIn-1"><path class="cls-1" d="M20,0A20,20,0,1,0,40,20,20.1,20.1,0,0,0,20,0ZM14.2,30.1H9.7V16.5h4.5ZM12,14.6h-.1a2.3,2.3,0,0,1-2.5-2.3A2.4,2.4,0,0,1,12,9.9a2.4,2.4,0,1,1,0,4.7ZM30.6,30.1H26V22.8c0-1.8-.6-3.1-2.3-3.1a2.5,2.5,0,0,0-2.3,1.7,3.7,3.7,0,0,0-.1,1.1v7.6H16.7s.1-12.4,0-13.6h4.6v1.9a4.5,4.5,0,0,1,4.1-2.3c2.9,0,5.2,2,5.2,6.2Z"/></g></g></svg>